<svg width="28" height="28" viewBox="0 0 28 28" fill="none" xmlns="http://www.w3.org/2000/svg">
<path d="M23.04 -9.53674e-07C24.3733 -9.53674e-07 25.52 0.506666 26.48 1.52C27.4933 2.48 28 3.65333 28 5.04V22.96C28 24.3467 27.4933 25.5467 26.48 26.56C25.52 27.52 24.3467 28 22.96 28H5.04C3.65333 28 2.45333 27.52 1.44 26.56C0.48 25.5467 2.38419e-07 24.3733 2.38419e-07 23.04V4.96C2.38419e-07 3.62667 0.48 2.48 1.44 1.52C2.45333 0.506666 3.62667 -9.53674e-07 4.96 -9.53674e-07H23.04ZM23.04 2H5.04C4.18667 2 3.46667 2.29333 2.88 2.88C2.29333 3.46666 2 4.18667 2 5.04V22.96C2 23.8133 2.29333 24.5333 2.88 25.12C3.46667 25.7067 4.18667 26 5.04 26H23.04C23.84 26 24.5333 25.7067 25.12 25.12C25.7067 24.5333 26 23.8133 26 22.96V4.96C26 4.16 25.7067 3.46666 25.12 2.88C24.5333 2.29333 23.8133 2 22.96 2H23.04ZM8 16C8.53333 16 8.98667 16.2133 9.36 16.64C9.78667 17.0133 10 17.4667 10 18C10 18.5333 9.78667 19.0133 9.36 19.44C8.98667 19.8133 8.53333 20 8 20C7.46667 20 6.98667 19.8133 6.56 19.44C6.18667 19.0133 6 18.5333 6 18C6 17.4667 6.18667 17.0133 6.56 16.64C6.98667 16.2133 7.46667 16 8 16ZM14 16C14.5333 16 14.9867 16.2133 15.36 16.64C15.7867 17.0133 16 17.4667 16 18C16 18.5333 15.7867 19.0133 15.36 19.44C14.9867 19.8133 14.5333 20 14 20C13.4667 20 12.9867 19.8133 12.56 19.44C12.1867 19.0133 12 18.5333 12 18C12 17.4667 12.1867 17.0133 12.56 16.64C12.9867 16.2133 13.4667 16 14 16ZM8 8C8.53333 8 8.98667 8.21333 9.36 8.64C9.78667 9.01333 10 9.46667 10 10C10 10.5333 9.78667 11.0133 9.36 11.44C8.98667 11.8133 8.53333 12 8 12C7.46667 12 6.98667 11.8133 6.56 11.44C6.18667 11.0133 6 10.5333 6 10C6 9.46667 6.18667 9.01333 6.56 8.64C6.98667 8.21333 7.46667 8 8 8ZM14 8C14.5333 8 14.9867 8.21333 15.36 8.64C15.7867 9.01333 16 9.46667 16 10C16 10.5333 15.7867 11.0133 15.36 11.44C14.9867 11.8133 14.5333 12 14 12C13.4667 12 12.9867 11.8133 12.56 11.44C12.1867 11.0133 12 10.5333 12 10C12 9.46667 12.1867 9.01333 12.56 8.64C12.9867 8.21333 13.4667 8 14 8ZM20 8C20.5333 8 20.9867 8.21333 21.36 8.64C21.7867 9.01333 22 9.46667 22 10C22 10.5333 21.7867 11.0133 21.36 11.44C20.9867 11.8133 20.5333 12 20 12C19.4667 12 18.9867 11.8133 18.56 11.44C18.1867 11.0133 18 10.5333 18 10C18 9.46667 18.1867 9.01333 18.56 8.64C18.9867 8.21333 19.4667 8 20 8Z" fill="#FFD600"/>
</svg>
