<svg width="32" height="32" viewBox="0 0 32 32" fill="none" xmlns="http://www.w3.org/2000/svg">
<path d="M2 16C2 18.56 2.61333 20.9067 3.84 23.04C5.12 25.1733 6.82667 26.8533 8.96 28.08C11.0933 29.36 13.44 30 16 30C18.56 30 20.9067 29.36 23.04 28.08C25.1733 26.8533 26.8533 25.1733 28.08 23.04C29.36 20.9067 30 18.56 30 16C30 13.44 29.36 11.0933 28.08 8.96C26.8533 6.82667 25.1733 5.12 23.04 3.84C20.9067 2.61333 18.56 2 16 2C13.44 2 11.0933 2.61333 8.96 3.84C6.82667 5.12 5.12 6.82667 3.84 8.96C2.61333 11.0933 2 13.44 2 16ZM16 -8.14623e-07C18.88 -6.88734e-07 21.5467 0.72 24 2.16C26.4533 3.6 28.4 5.54667 29.84 8C31.28 10.4533 32 13.12 32 16C32 18.88 31.28 21.5467 29.84 24C28.4 26.4533 26.4533 28.4 24 29.84C21.5467 31.28 18.88 32 16 32C13.12 32 10.4533 31.28 8 29.84C5.54667 28.4 3.6 26.4533 2.16 24C0.719999 21.5467 -9.40512e-07 18.88 -8.14623e-07 16C-6.88734e-07 13.12 0.72 10.4533 2.16 8C3.6 5.54667 5.54667 3.6 8 2.16C10.4533 0.719999 13.12 -9.40512e-07 16 -8.14623e-07ZM9.68 12.32L16 18.56L22.32 12.32C22.5867 12.0533 22.9067 11.9467 23.28 12C23.6533 12.1067 23.8667 12.3467 23.92 12.72C24.0267 13.0933 23.9467 13.4133 23.68 13.68L16.72 20.72C16.5067 20.9333 16.2667 21.04 16 21.04C15.7333 21.04 15.4933 20.9333 15.28 20.72L8.32 13.68C8.10667 13.52 8 13.28 8 12.96C8 12.6933 8.08 12.4533 8.24 12.24C8.45333 12.08 8.69333 12 8.96 12C9.28 12 9.52 12.1067 9.68 12.32Z" fill="#2F2F2F"/>
</svg>
