<svg width="28" height="30" viewBox="0 0 28 30" fill="none" xmlns="http://www.w3.org/2000/svg">
<path d="M12 0.799998C12.5867 0.266665 13.2533 -1.43051e-06 14 -1.43051e-06C14.7467 -1.43051e-06 15.4133 0.266665 16 0.799998L27.04 10.64C27.68 11.2267 28 11.9733 28 12.88V26.96C28 27.8133 27.7067 28.5333 27.12 29.12C26.5333 29.7067 25.8133 30 24.96 30H20C19.1467 30 18.4267 29.7067 17.84 29.12C17.3067 28.5333 17.04 27.8133 17.04 26.96V20C17.04 19.7333 16.9333 19.4933 16.72 19.28C16.5067 19.0667 16.2667 18.96 16 18.96H12C11.7333 18.96 11.4933 19.0667 11.28 19.28C11.0667 19.4933 10.96 19.7333 10.96 20V26.96C11.0133 27.8133 10.7467 28.5333 10.16 29.12C9.57333 29.7067 8.85333 30 8 30H3.04C2.18667 30 1.46667 29.7067 0.88 29.12C0.293334 28.5333 2.38419e-07 27.8133 2.38419e-07 26.96V12.88C2.38419e-07 11.9733 0.32 11.2267 0.96 10.64L12 0.799998ZM14.64 2.24C14.48 2.08 14.2667 2 14 2C13.7333 2 13.52 2.08 13.36 2.24L2.32 12.16C2.10667 12.3733 2 12.6133 2 12.88V26.96C2 27.28 2.08 27.5467 2.24 27.76C2.45333 27.92 2.72 28 3.04 28H8C8.26667 28 8.50667 27.92 8.72 27.76C8.93333 27.5467 9.04 27.28 9.04 26.96V20C9.04 19.1467 9.30667 18.4267 9.84 17.84C10.4267 17.2533 11.1467 16.96 12 16.96H16C16.8533 17.0133 17.5467 17.3333 18.08 17.92C18.6667 18.4533 18.9867 19.1467 19.04 20V26.96C19.04 27.28 19.12 27.5467 19.28 27.76C19.4933 27.92 19.7333 28 20 28H25.04C25.3067 28 25.52 27.92 25.68 27.76C25.8933 27.5467 26 27.28 26 26.96V12.88C26 12.6133 25.8933 12.3733 25.68 12.16L14.64 2.24Z" fill="#2F2F2F"/>
</svg>
