<svg width="80" height="77" viewBox="0 0 80 77" fill="none" xmlns="http://www.w3.org/2000/svg">
<path d="M79.5464 72.2484C73.6944 62.1313 64.6762 54.8767 54.1517 51.4377C59.3576 48.3387 63.4022 43.6164 65.6645 37.9961C67.9268 32.3758 68.2816 26.1683 66.6745 20.3268C65.0674 14.4854 61.5872 9.33297 56.7683 5.66086C51.9495 1.98876 46.0585 0 40 0C33.9415 0 28.0505 1.98876 23.2317 5.66086C18.4128 9.33297 14.9326 14.4854 13.3255 20.3268C11.7184 26.1683 12.0732 32.3758 14.3355 37.9961C16.5978 43.6164 20.6424 48.3387 25.8483 51.4377C15.3238 54.8729 6.30559 62.1274 0.453548 72.2484C0.238943 72.5984 0.0965976 72.9877 0.0349093 73.3936C-0.026779 73.7994 -0.00656009 74.2135 0.094373 74.6113C0.195306 75.0092 0.374909 75.3829 0.622585 75.7102C0.87026 76.0376 1.18099 76.312 1.53645 76.5173C1.8919 76.7226 2.28488 76.8547 2.69219 76.9057C3.0995 76.9566 3.5129 76.9255 3.90799 76.8142C4.30308 76.7028 4.67187 76.5134 4.99258 76.2572C5.3133 76.001 5.57945 75.6831 5.77534 75.3224C13.0145 62.8114 25.8098 55.3417 40 55.3417C54.1902 55.3417 66.9855 62.8114 74.2247 75.3224C74.4205 75.6831 74.6867 76.001 75.0074 76.2572C75.3281 76.5134 75.6969 76.7028 76.092 76.8142C76.4871 76.9255 76.9005 76.9566 77.3078 76.9057C77.7151 76.8547 78.1081 76.7226 78.4635 76.5173C78.819 76.312 79.1297 76.0376 79.3774 75.7102C79.6251 75.3829 79.8047 75.0092 79.9056 74.6113C80.0066 74.2135 80.0268 73.7994 79.9651 73.3936C79.9034 72.9877 79.7611 72.5984 79.5464 72.2484ZM18.4823 27.6761C18.4823 23.4203 19.7443 19.26 22.1087 15.7215C24.4731 12.1829 27.8337 9.42493 31.7655 7.7963C35.6974 6.16768 40.0239 5.74156 44.1979 6.57182C48.3719 7.40209 52.206 9.45145 55.2153 12.4608C58.2246 15.4701 60.274 19.3041 61.1042 23.4782C61.9345 27.6522 61.5084 31.9787 59.8798 35.9105C58.2511 39.8424 55.4932 43.203 51.9546 45.5674C48.416 47.9318 44.2558 49.1938 40 49.1938C34.295 49.1877 28.8255 46.9187 24.7914 42.8846C20.7574 38.8506 18.4884 33.381 18.4823 27.6761Z" fill="black"/>
</svg>
