<svg width="33" height="33" viewBox="0 0 33 33" fill="none" xmlns="http://www.w3.org/2000/svg">
<path d="M16 -1.43051e-06C19.3067 -1.43051e-06 22.32 0.933332 25.04 2.8C27.76 4.66666 29.7067 7.14666 30.88 10.24C32.1067 13.3333 32.32 16.5067 31.52 19.76C30.7733 22.96 29.1733 25.68 26.72 27.92C24.2667 30.1067 21.3867 31.4133 18.08 31.84C14.8267 32.2667 11.7333 31.7333 8.8 30.24L8.56 30.16L1.28 32C0.96 32.0533 0.666667 32 0.4 31.84C0.186667 31.6267 0.0533335 31.3867 5.96046e-08 31.12V30.96L1.84 23.44L1.76 23.2C0.8 21.3867 0.24 19.4667 0.0800002 17.44L5.96046e-08 16C5.96046e-08 13.12 0.72 10.4533 2.16 8C3.6 5.54666 5.54667 3.6 8 2.16C10.4533 0.719999 13.12 -1.43051e-06 16 -1.43051e-06ZM16 2C13.4933 2 11.1733 2.61333 9.04 3.84C6.90667 5.06667 5.2 6.77333 3.92 8.96C2.64 11.0933 2 13.4133 2 15.92C2 18.3733 2.58667 20.6933 3.76 22.88C3.86667 23.04 3.92 23.2 3.92 23.36L2.4 29.6L8.4 28.08C8.56 28.08 8.69333 28.08 8.8 28.08L9.12 28.24C11.68 29.68 14.4267 30.2667 17.36 30C20.2933 29.68 22.8533 28.56 25.04 26.64C27.28 24.72 28.7733 22.3467 29.52 19.52C30.2667 16.6933 30.1333 13.92 29.12 11.2C28.1067 8.42667 26.4 6.21333 24 4.56C21.6 2.85333 18.9333 2 16 2ZM17.04 18C17.2533 18 17.4667 18.1067 17.68 18.32C17.8933 18.48 18 18.6933 18 18.96C18 19.1733 17.92 19.3867 17.76 19.6C17.6533 19.8133 17.4667 19.9467 17.2 20H11.04C10.7733 20 10.5333 19.92 10.32 19.76C10.1067 19.5467 10 19.3333 10 19.12C10 18.8533 10.0533 18.6133 10.16 18.4C10.32 18.1867 10.5333 18.0533 10.8 18H17.04ZM21.04 12C21.2533 12 21.4667 12.1067 21.68 12.32C21.8933 12.48 22 12.6933 22 12.96C22 13.1733 21.92 13.3867 21.76 13.6C21.6533 13.8133 21.4667 13.9467 21.2 14H11.04C10.7733 14 10.5333 13.92 10.32 13.76C10.1067 13.5467 10 13.3333 10 13.12C10 12.8533 10.0533 12.6133 10.16 12.4C10.32 12.1867 10.5333 12.0533 10.8 12L21.04 12Z" fill="white"/>
</svg>
