<svg width="28" height="28" viewBox="0 0 28 28" fill="none" xmlns="http://www.w3.org/2000/svg">
<path d="M8.36 15.86C8.88 15.86 9.32 15.68 9.68 15.32C10.04 14.96 10.22 14.52 10.22 14C10.26 13.48 10.08 13.04 9.68 12.68C9.32 12.32 8.88 12.14 8.36 12.14C7.84 12.14 7.4 12.32 7.04 12.68C6.68 13.04 6.5 13.48 6.5 14C6.5 14.52 6.68 14.96 7.04 15.32C7.4 15.68 7.84 15.86 8.36 15.86ZM14 15.86C14.52 15.86 14.96 15.68 15.32 15.32C15.68 14.96 15.86 14.52 15.86 14C15.86 13.48 15.68 13.04 15.32 12.68C14.96 12.32 14.52 12.14 14 12.14C13.48 12.14 13.04 12.32 12.68 12.68C12.32 13.04 12.14 13.48 12.14 14C12.14 14.52 12.32 14.96 12.68 15.32C13.04 15.68 13.48 15.86 14 15.86ZM21.5 14C21.5 14.52 21.32 14.96 20.96 15.32C20.6 15.68 20.16 15.86 19.64 15.86C19.12 15.86 18.68 15.68 18.32 15.32C17.96 14.96 17.78 14.52 17.78 14C17.78 13.48 17.96 13.04 18.32 12.68C18.68 12.32 19.12 12.14 19.64 12.14C20.16 12.14 20.6 12.32 20.96 12.68C21.32 13.04 21.5 13.48 21.5 14ZM27.14 14C27.14 16.36 26.54 18.56 25.34 20.6C24.18 22.6 22.58 24.2 20.54 25.4C18.54 26.56 16.36 27.14 14 27.14C11.64 27.14 9.44 26.56 7.4 25.4C5.4 24.2 3.8 22.6 2.6 20.6C1.44 18.56 0.86 16.36 0.86 14C0.86 11.64 1.44 9.46 2.6 7.46C3.8 5.42 5.4 3.82 7.4 2.66C9.44 1.46 11.64 0.859999 14 0.859999C16.36 0.859999 18.54 1.46 20.54 2.66C22.58 3.82 24.18 5.42 25.34 7.46C26.54 9.46 27.14 11.64 27.14 14ZM25.28 14C25.28 11.96 24.76 10.08 23.72 8.36C22.72 6.64 21.36 5.28 19.64 4.28C17.92 3.24 16.04 2.72 14 2.72C11.96 2.72 10.08 3.24 8.36 4.28C6.64 5.28 5.28 6.64 4.28 8.36C3.28 10.08 2.78 11.96 2.78 14C2.78 16.04 3.28 17.92 4.28 19.64C5.28 21.36 6.64 22.72 8.36 23.72C10.08 24.72 11.96 25.22 14 25.22C16.04 25.22 17.92 24.72 19.64 23.72C21.36 22.72 22.72 21.36 23.72 19.64C24.76 17.92 25.28 16.04 25.28 14Z" fill="white"/>
</svg>
